<?xml version="1.0" encoding="UTF-8"?>
<svg width="32px" height="32px" viewBox="0 0 32 32" version="1.1" xmlns="http://www.w3.org/2000/svg" xmlns:xlink="http://www.w3.org/1999/xlink">
    <!-- Generator: Sketch 52.2 (67145) - http://www.bohemiancoding.com/sketch -->
    <title>user-silhouette</title>
    <desc>Created with Sketch.</desc>
    <g id="Page-1" stroke="none" stroke-width="1" fill="none" fill-rule="evenodd">
        <g id="Messages" transform="translate(-194.000000, -680.000000)" fill="#FF0086">
            <g id="user-silhouette" transform="translate(194.000000, 680.000000)">
                <path d="M15.1427737,16.884914 C19.0874161,16.884914 22.2855474,13.1050614 22.2855474,8.44241769 C22.2855474,1.97660934 19.0875718,0 15.1427737,0 C11.19782,0 8,1.97660934 8,8.44241769 C8.00007786,13.1050614 11.1978978,16.884914 15.1427737,16.884914 Z" id="Path"></path>
                <path d="M31.7013795,29.0542233 L28.0977591,20.856641 C27.9329318,20.4815255 27.6433746,20.17041 27.2829659,19.980926 L21.6903625,17.0410144 C21.567034,16.9763068 21.4177007,16.9888867 21.3068296,17.0736434 C19.7250486,18.281781 17.8652335,18.9203658 15.9286496,18.9203658 C13.9917542,18.9203658 12.1320948,18.281781 10.5503138,17.0736434 C10.4391313,16.9888867 10.289798,16.9763068 10.1664695,17.0410144 L4.57425542,19.980926 C4.21369094,20.17041 3.9244452,20.4813682 3.75946223,20.856641 L0.155841795,29.0542233 C-0.092605894,29.6193731 -0.041686186,30.2659776 0.292094836,30.7843461 C0.62572014,31.302636 1.19035274,31.6119432 1.80255712,31.6119432 L30.0545085,31.6119432 C30.6667128,31.6119432 31.2315012,31.3024788 31.5651265,30.7842675 C31.8987518,30.2659776 31.9498272,29.6191373 31.7013795,29.0542233 Z" id="Path"></path>
            </g>
        </g>
    </g>
</svg>