<?xml version="1.0" encoding="UTF-8"?>
<svg width="218px" height="75px" viewBox="0 0 218 75" version="1.1" xmlns="http://www.w3.org/2000/svg" xmlns:xlink="http://www.w3.org/1999/xlink">
    <!-- Generator: Sketch 52.2 (67145) - http://www.bohemiancoding.com/sketch -->
    <title>Group 5</title>
    <desc>Created with Sketch.</desc>
    <g id="Page-1" stroke="none" stroke-width="1" fill="none" fill-rule="evenodd">
        <g id="Login" transform="translate(-92.000000, -399.000000)" fill="#FF0086">
            <g id="Group-3" transform="translate(19.000000, 399.000000)">
                <g id="Group" transform="translate(73.000000, 0.000000)">
                    <g id="Group-5">
                        <path d="M19.5641026,-1.77635684e-14 C23.1497521,-1.77635684e-14 26.4440182,0.892015333 29.4469997,2.67607276 C32.4051606,4.46013019 34.7582078,6.86170993 36.506212,9.88088404 C38.2542162,12.9458032 39.1282051,16.3080149 39.1282051,19.9676198 C39.1282051,22.7580686 38.4559059,25.960175 37.1112873,29.5740349 C35.9459512,32.638954 34.3324331,35.9554213 32.2706846,39.5235362 C30.5675011,42.35973 28.6178334,45.3102423 26.4216231,48.3751615 C24.897722,50.5251794 23.2842039,52.6294207 21.5810204,54.6879485 L19.5641026,57.0895522 L17.5471848,54.6879485 C15.8440012,52.6294207 14.2304831,50.5251794 12.7065821,48.3751615 C10.5103717,45.3102423 8.56070403,42.35973 6.85752049,39.5235362 C4.79577199,35.9554213 3.1822539,32.638954 2.01691779,29.5740349 C0.672299207,25.960175 -1.77635684e-14,22.7580686 -1.77635684e-14,19.9676198 C-1.77635684e-14,16.3080149 0.873988969,12.9458032 2.62199313,9.88088404 C4.36999729,6.86170993 6.72304451,4.46013019 9.68120539,2.67607276 C12.6841869,0.892015333 15.978453,-1.77635684e-14 19.5641026,-1.77635684e-14 Z M19.3661862,9.11847015 C12.8176077,9.11847015 7.50945351,14.6074218 7.50945351,21.3796657 C7.50945351,28.0993157 12.7368276,33.5523797 19.2147982,33.63653 L19.2147982,38.8526119 L27.3173476,30.4753245 C29.7168176,28.2323475 31.2235172,24.9882291 31.2235172,21.3796657 C31.2229189,14.6074218 25.9141663,9.11847015 19.3661862,9.11847015 Z" id="Combined-Shape"></path>
                        <path d="M55.8974359,0 L66.3582418,0 L66.3582418,16.1748927 L65.7194139,23.3369099 L66.3582418,23.3369099 C67.4761961,21.4592181 69.0865585,19.9168515 71.1893773,18.7097639 C73.2921961,17.5026764 75.6478502,16.8991416 78.2564103,16.8991416 C83.3138226,16.8991416 87.0535898,18.4012725 89.4758242,21.4055794 C91.8980585,24.4098863 93.1091575,28.5139225 93.1091575,33.7178112 L93.1091575,57.6180258 L82.6483516,57.6180258 L82.6483516,35.0053648 C82.6483516,32.2692996 82.0095302,30.1904578 80.7318681,28.7687768 C79.4542061,27.3470959 77.6708295,26.6362661 75.381685,26.6362661 C73.9443152,26.6362661 72.6666723,26.9447394 71.5487179,27.5616953 C70.4307636,28.1786512 69.4858402,29.0235998 68.7139194,30.0965665 C67.9419986,31.1695333 67.3564123,32.4168384 66.9571429,33.8385193 C66.5578735,35.2602002 66.3582418,36.775743 66.3582418,38.3851931 L66.3582418,57.6180258 L55.8974359,57.6180258 L55.8974359,0 Z M138.785348,48.1223176 C136.975327,51.3412178 134.53982,53.9431231 131.478755,55.9281116 C128.417689,57.9131001 124.677922,58.9055794 120.259341,58.9055794 C117.278129,58.9055794 114.523212,58.382516 111.994505,57.3363734 C109.465799,56.2902308 107.269851,54.8283356 105.406593,52.9506438 C103.543336,51.072952 102.092679,48.8599913 101.054579,46.3116953 C100.016478,43.7633993 99.4974359,40.9603157 99.4974359,37.9023605 C99.4974359,35.0589987 100.00317,32.3632102 101.014652,29.8149142 C102.026134,27.2666182 103.436865,25.0402456 105.246886,23.1357296 C107.056908,21.2312137 109.199621,19.7156709 111.675092,18.5890558 C114.150562,17.4624407 116.878862,16.8991416 119.860073,16.8991416 C123.000993,16.8991416 125.795836,17.4222051 128.244689,18.4683476 C130.693541,19.5144902 132.743093,20.9629736 134.393407,22.8138412 C136.04372,24.6647088 137.294745,26.8508458 138.14652,29.3723176 C138.998295,31.8937894 139.424176,34.6298136 139.424176,37.5804721 L139.424176,38.5461373 C139.37094,38.8680274 139.344322,39.1630888 139.344322,39.4313305 C139.291086,39.6995722 139.264469,39.9946336 139.264469,40.3165236 L109.798535,40.3165236 C110.011478,41.9259737 110.450668,43.3073977 111.116117,44.4608369 C111.781566,45.6142762 112.606711,46.5799317 113.591575,47.3578326 C114.57644,48.1357335 115.654451,48.6990326 116.825641,49.0477468 C117.996831,49.396461 119.194621,49.5708155 120.419048,49.5708155 C122.814664,49.5708155 124.797672,49.0209282 126.368132,47.9211373 C127.938591,46.8213464 129.176308,45.4399225 130.081319,43.776824 L138.785348,48.1223176 Z M129.282784,32.832618 C129.229548,32.1351896 129.003299,31.3573004 128.604029,30.498927 C128.20476,29.6405536 127.619174,28.8358407 126.847253,28.0847639 C126.075332,27.3336872 125.1171,26.7167406 123.972527,26.2339056 C122.827955,25.7510705 121.457151,25.5096567 119.860073,25.5096567 C117.624165,25.5096567 115.654465,26.153427 113.950916,27.4409871 C112.247366,28.7285472 111.049576,30.5257395 110.357509,32.832618 L129.282784,32.832618 Z M158.429304,55.6866953 L141.979487,18.1866953 L153.877656,18.1866953 L163.779487,42.0869099 L164.338462,42.0869099 L173.841026,18.1866953 L185.499634,18.1866953 L160.984615,75 L149.725275,75 L158.429304,55.6866953 Z M190.290842,18.1866953 L200.112821,18.1866953 L200.112821,23.6587983 L200.751648,23.6587983 C201.230772,22.6931282 201.869593,21.8079439 202.668132,21.0032189 C203.466671,20.1984938 204.358359,19.5010759 205.343223,18.9109442 C206.328088,18.3208125 207.39279,17.8648085 208.537363,17.5429185 C209.681935,17.2210284 210.813181,17.0600858 211.931136,17.0600858 C213.315269,17.0600858 214.499751,17.1942047 215.484615,17.4624464 C216.46948,17.730688 217.307933,18.079397 218,18.5085837 L215.205128,28.0847639 C214.566297,27.7628739 213.860932,27.5080481 213.089011,27.320279 C212.31709,27.1325098 211.372167,27.0386266 210.254212,27.0386266 C208.816843,27.0386266 207.512582,27.3202762 206.341392,27.8835837 C205.170202,28.4468912 204.172043,29.2381923 203.346886,30.2575107 C202.52173,31.2768291 201.882908,32.4704867 201.430403,33.8385193 C200.977898,35.2065519 200.751648,36.6952709 200.751648,38.304721 L200.751648,57.6180258 L190.290842,57.6180258 L190.290842,18.1866953 Z" id="heyr"></path>
                    </g>
                </g>
            </g>
        </g>
    </g>
</svg>