<?xml version="1.0" encoding="UTF-8"?>
<svg width="46px" height="46px" viewBox="0 0 46 46" version="1.1" xmlns="http://www.w3.org/2000/svg" xmlns:xlink="http://www.w3.org/1999/xlink">
    <!-- Generator: Sketch 52.2 (67145) - http://www.bohemiancoding.com/sketch -->
    <title>Group 4</title>
    <desc>Created with Sketch.</desc>
    <g id="Page-1" stroke="none" stroke-width="1" fill="none" fill-rule="evenodd">
        <g id="Chat" transform="translate(-344.000000, -666.000000)">
            <g id="Group-4" transform="translate(344.000000, 666.000000)">
                <circle id="Oval" fill="#FF0086" cx="23" cy="23" r="23"></circle>
                <g id="sent-mail" transform="translate(8.000000, 12.000000)" fill="#FFFFFF">
                    <path d="M26.4171142,0.0961979311 C26.3009323,-0.00504764773 26.1355935,-0.0285372422 25.9954573,0.0360397617 L0.675754886,11.7244 C0.539442035,11.787349 0.451661865,11.9224723 0.450023302,12.0717824 C0.448384739,12.2210925 0.533277917,12.3580763 0.668264312,12.4238937 L7.83370108,15.9177189 C7.96509825,15.9818308 8.1217761,15.9673339 8.23912843,15.8801976 L15.2059089,10.7067501 L9.73669715,16.2961882 C9.65867033,16.3759598 9.61887665,16.4851903 9.6274596,16.5960488 L10.1720088,23.6420744 C10.1841029,23.7982066 10.2894391,23.9317019 10.4391726,23.9806191 C10.4792003,23.9936431 10.5203205,24 10.5609725,24 C10.6724728,24 10.7809301,23.9524781 10.856382,23.8656519 L14.6595651,19.4869744 L19.3610711,21.7188735 C19.4631301,21.7673257 19.5812627,21.7693413 19.6849604,21.7245327 C19.788658,21.6796467 19.8676212,21.5923553 19.9014848,21.485218 L26.5320477,0.503738519 C26.5783957,0.357219266 26.5332181,0.19744351 26.4171142,0.0961979311 Z" id="Path"></path>
                </g>
            </g>
        </g>
    </g>
</svg>