<?xml version="1.0" encoding="UTF-8"?>
<svg width="36px" height="39px" viewBox="0 0 36 39" version="1.1" xmlns="http://www.w3.org/2000/svg" xmlns:xlink="http://www.w3.org/1999/xlink">
    <!-- Generator: Sketch 52.2 (67145) - http://www.bohemiancoding.com/sketch -->
    <title>Shape</title>
    <desc>Created with Sketch.</desc>
    <g id="Page-1" stroke="none" stroke-width="1" fill="none" fill-rule="evenodd">
        <g id="Home-Screen-Copy" transform="translate(-256.000000, -572.000000)" fill="#FF0086" fill-rule="nonzero">
            <g id="thumbs-up" transform="translate(239.000000, 557.000000)">
                <g id="Group-5">
                    <g id="thumbs-up" transform="translate(17.600000, 15.200000)">
                        <path d="M34.0637376,21.4210689 C34.8116774,20.2844773 35.1851663,19.0333311 35.1851663,17.6667429 C35.1851663,16.0850017 34.6058497,14.7111529 33.4462542,13.5430185 C32.2860975,12.3760941 30.9124155,11.7927529 29.3253686,11.7927529 L25.2961312,11.7927529 C26.0285157,10.2727261 26.3953494,8.79844034 26.3953494,7.37062185 C26.3953494,5.57396975 26.1275408,4.14607059 25.5938478,3.08652101 C25.0595936,2.02664874 24.2811043,1.24759664 23.2584601,0.748315966 C22.2355754,0.249277311 21.0836774,0 19.8017239,0 C19.0229941,0 18.3364738,0.284047059 17.7412811,0.852383193 C17.0851499,1.49719664 16.6119945,2.32658824 16.3221358,3.34007395 C16.0321166,4.35323697 15.7992674,5.32461176 15.6239089,6.25363361 C15.4485503,7.18257479 15.177374,7.83900504 14.811262,8.2228437 C14.0632419,9.03666555 13.2468264,10.0196571 12.3616146,11.1711731 C10.8201913,13.1824941 9.77461503,14.3726521 9.22544692,14.7413244 L2.95295125,14.7413244 C2.14407289,14.7413244 1.45338314,15.0296471 0.881042369,15.6050017 C0.308942141,16.180921 0.0226915718,16.8757513 0.0226915718,17.6896538 L0.0226915718,32.4303328 C0.0226915718,33.2442353 0.308621412,33.9388235 0.881042369,34.5147429 C1.45370387,35.0906622 2.14407289,35.3788235 2.95295125,35.3788235 L9.54561458,35.3788235 C9.88141777,35.3788235 10.9342907,35.6858622 12.7047144,36.3001008 C14.582021,36.960484 16.2340957,37.4632336 17.6609385,37.8088336 C19.0879417,38.1544336 20.5340282,38.3273143 21.9992784,38.3273143 L24.1277157,38.3273143 L24.9523098,38.3273143 C27.1040802,38.3273143 28.8361768,37.7088807 30.1488401,36.4726588 C31.4610223,35.236437 32.1099371,33.5512739 32.0948629,31.4169277 C33.010544,30.2345143 33.4683043,28.8679261 33.4683043,27.3172437 C33.4683043,26.9796303 33.4457731,26.6495193 33.3997485,26.3267496 C33.9794661,25.2983395 34.2700465,24.1927261 34.2700465,23.0103126 C34.2698059,22.4574655 34.2012501,21.9274487 34.0637376,21.4210689 Z M5.44830251,31.9930084 C5.15836355,32.284558 4.81502323,32.4308975 4.41820137,32.4308975 C4.02129932,32.4308975 3.67787882,32.2846387 3.38785968,31.9930084 C3.09800091,31.7015395 2.95295125,31.3559395 2.95295125,30.9563697 C2.95295125,30.5572034 3.09768018,30.2118454 3.38785968,29.9199731 C3.67819954,29.6281815 4.02129932,29.4823261 4.41820137,29.4823261 C4.81502323,29.4823261 5.15836355,29.6281815 5.44830251,29.9199731 C5.73832164,30.2117647 5.8833713,30.5571227 5.8833713,30.9563697 C5.8833713,31.3559395 5.73832164,31.7015395 5.44830251,31.9930084 Z M31.7637904,19.5564908 C31.4356046,20.2626958 31.0272364,20.6235429 30.5389267,20.6387092 C30.7677667,20.8998454 30.9586806,21.2648874 31.1113476,21.7327866 C31.2638542,22.2012504 31.3396264,22.6272 31.3396264,23.0112807 C31.3396264,24.0702655 30.9357485,24.984121 30.12679,25.751637 C30.401815,26.2427697 30.5390068,26.7727866 30.5390068,27.3406387 C30.5390068,27.9088134 30.4056638,28.473116 30.1384164,29.0334655 C29.8716501,29.5933311 29.5089057,29.9965311 29.0512255,30.2420975 C29.1274788,30.7026555 29.1653248,31.1327193 29.1653248,31.5318857 C29.1653248,34.0960538 27.7000747,35.3781782 24.7694943,35.3781782 L22.0003207,35.3781782 C20.0005759,35.3781782 17.3912055,34.8180706 14.1706861,33.6968874 C14.0942724,33.6662319 13.8732902,33.5853176 13.5067772,33.4550319 C13.1402642,33.3247462 12.8694888,33.2286655 12.6938897,33.1674353 C12.5182907,33.1055597 12.2514442,33.0173042 11.8925485,32.9024269 C11.533733,32.7869849 11.2441148,32.7024403 11.0226515,32.6489546 C10.8015089,32.5953882 10.5494961,32.5454521 10.267415,32.4993076 C9.98517358,32.4532437 9.74470706,32.4303328 9.54633622,32.4303328 L8.81379134,32.4303328 L8.81379134,17.6902185 L9.54633622,17.6902185 C9.79049112,17.6902185 10.0613467,17.620921 10.3589831,17.4830521 C10.6565394,17.3447798 10.9619535,17.1375328 11.2747444,16.8610689 C11.5876957,16.584605 11.8812428,16.3120941 12.1561075,16.0432134 C12.430892,15.7745748 12.7360656,15.4368 13.071949,15.0300504 C13.407672,14.6229782 13.6709103,14.2968202 13.8618241,14.0510924 C14.0524975,13.8054454 14.2928036,13.4905008 14.5828228,13.1066622 C14.8726815,12.7229042 15.0483608,12.4925042 15.1093795,12.4156235 C15.9486469,11.3716437 16.5362223,10.6730218 16.8719453,10.3196773 C17.4976875,9.65961681 17.9516793,8.81893109 18.2340009,7.79778151 C18.5166433,6.77647059 18.7493321,5.81292101 18.9318269,4.90713277 C19.1148027,4.00126387 19.4051426,3.34846387 19.8024456,2.94921681 C21.2672146,2.94921681 22.2442351,3.30990252 22.7324647,4.03167731 C23.2206141,4.75329076 23.4648492,5.86664874 23.4648492,7.37142857 C23.4648492,8.27729748 23.098256,9.50948571 22.3655508,11.0679126 C21.6331663,12.6265008 21.2672146,13.8511059 21.2672146,14.7416471 L29.325128,14.7416471 C30.0890241,14.7416471 30.7678469,15.0370689 31.3627991,15.628558 C31.9582323,16.2196437 32.2562697,16.9066487 32.2562697,17.6899765 C32.2560292,18.2273345 32.0918961,18.8493176 31.7637904,19.5564908 Z" id="Shape"></path>
                    </g>
                </g>
            </g>
        </g>
    </g>
</svg>