<?xml version="1.0" encoding="UTF-8"?>
<svg width="32px" height="32px" viewBox="0 0 32 32" version="1.1" xmlns="http://www.w3.org/2000/svg" xmlns:xlink="http://www.w3.org/1999/xlink">
    <!-- Generator: Sketch 52.2 (67145) - http://www.bohemiancoding.com/sketch -->
    <title>Shape</title>
    <desc>Created with Sketch.</desc>
    <g id="Page-1" stroke="none" stroke-width="1" fill="none" fill-rule="evenodd">
        <g id="Home-Screen" transform="translate(-334.000000, -680.000000)" fill="#D4D4D4" fill-rule="nonzero">
            <path d="M350,694.24 C349.04,694.24 348.24,695.04 348.24,696 C348.24,696.96 349.04,697.76 350,697.76 C350.96,697.76 351.76,696.96 351.76,696 C351.76,695.04 350.96,694.24 350,694.24 Z M350,680 C341.2,680 334,687.2 334,696 C334,704.8 341.2,712 350,712 C358.8,712 366,704.8 366,696 C366,687.2 358.8,680 350,680 Z M353.666667,699.666667 L340,706 L346.333333,692.333333 L360,686 L353.666667,699.666667 Z" id="Shape"></path>
        </g>
    </g>
</svg>